<svg id="svgRoot" width="1280" height="840" viewBox="0 0 1280 840"><defs><linearGradient id="bgGrad" x1="0%" y1="0%" x2="100%" y2="100%"><stop offset="0%" stop-color="#fafbfc"></stop><stop offset="100%" stop-color="#f0f4f8"></stop></linearGradient></defs><rect width="1280" height="840" fill="url(#bgGrad)"></rect><text x="60" y="75" font-size="36" font-weight="700" fill="#16324a" text-anchor="start" dominant-baseline="alphabetic">Key Milestones of the Digital India Journey</text><text x="60" y="105" font-size="16" font-weight="500" fill="#6b7a90" text-anchor="start" dominant-baseline="alphabetic">2015–2024</text><path d="M80,680 C280,450 500,380 720,320 C900,270 1080,240 1200,200" fill="none" stroke="#c5d1dd" stroke-width="16" stroke-linecap="round" opacity="0.3" transform="translate(2, 3)"></path><path id="curve" d="M80,680 C280,450 500,380 720,320 C900,270 1080,240 1200,200" fill="none" stroke="#d7e3ee" stroke-width="14" stroke-linecap="round" opacity="0.8"></path><g><circle cx="124.01403045654297" cy="637.2825317382812" r="35" fill="rgba(44, 90, 133, 0.2)"></circle><circle cx="122.01403045654297" cy="634.2825317382812" r="35" fill="#2c5a85"></circle><circle cx="122.01403045654297" cy="634.2825317382812" r="26" fill="#4a90c2"></circle><text x="122.01403045654297" y="641.2825317382812" font-size="18" font-weight="800" fill="#ffffff" text-anchor="middle" dominant-baseline="alphabetic">1</text></g><path d="M139.94623695413725,651.7019453371265 Q162.89946127105793,673.9987947436485 179.39709124884467,690.4763034138934" fill="none" stroke="#b8c9db" stroke-width="2.5" opacity="0.75"></path><rect x="176.1564178466797" y="618.476318359375" width="168.80470275878906" height="89" rx="10" ry="10" fill="#ffffff" opacity="0.96" stroke="#e8eff5" stroke-width="1.5"></rect><text x="190.15641514740125" y="650.4763034138934" font-size="20" font-weight="800" fill="#2c5a85" text-anchor="start" dominant-baseline="alphabetic">2015</text><g><text x="190.15641514740125" y="672.4763034138934" font-size="14" font-weight="600" fill="#1d3146" text-anchor="start">Digital India Program</text><text x="190.15641514740125" y="690.4763034138934" font-size="14" font-weight="600" fill="#1d3146" text-anchor="start">launched</text></g><g><circle cx="215.70701599121094" cy="553.6264038085938" r="35" fill="rgba(44, 90, 133, 0.2)"></circle><circle cx="213.70701599121094" cy="550.6264038085938" r="35" fill="#2c5a85"></circle><circle cx="213.70701599121094" cy="550.6264038085938" r="26" fill="#4a90c2"></circle><text x="213.70701599121094" y="557.6264038085938" font-size="18" font-weight="800" fill="#ffffff" text-anchor="middle" dominant-baseline="alphabetic">2</text></g><path d="M198.02765936153995,531.154429700158 Q177.95808287556108,506.23030284136024 163.53307477626376,466.6329021965379" fill="none" stroke="#b8c9db" stroke-width="2.5" opacity="0.75"></path><rect x="26.562957763671875" y="394.6329040527344" width="141.5625" height="71" rx="10" ry="10" fill="#ffffff" opacity="0.96" stroke="#e8eff5" stroke-width="1.5"></rect><text x="154.12546079846118" y="426.6329021965379" font-size="20" font-weight="800" fill="#2c5a85" text-anchor="end" dominant-baseline="alphabetic">2016</text><g><text x="154.12546079846118" y="448.6329021965379" font-size="14" font-weight="600" fill="#1d3146" text-anchor="end">BHIM app launch</text></g><g><circle cx="317.1589660644531" cy="482.1315612792969" r="35" fill="rgba(44, 90, 133, 0.2)"></circle><circle cx="315.1589660644531" cy="479.1315612792969" r="35" fill="#2c5a85"></circle><circle cx="315.1589660644531" cy="479.1315612792969" r="26" fill="#4a90c2"></circle><text x="315.1589660644531" y="486.1315612792969" font-size="18" font-weight="800" fill="#ffffff" text-anchor="middle" dominant-baseline="alphabetic">3</text></g><path d="M328.2250301199557,500.44535892536413 Q344.94959211099905,527.7270199123303 356.9703710420614,550.1239923343526" fill="none" stroke="#b8c9db" stroke-width="2.5" opacity="0.75"></path><rect x="350.80999755859375" y="478.1239929199219" width="132.234375" height="70.99996948242188" rx="10" ry="10" fill="#ffffff" opacity="0.96" stroke="#e8eff5" stroke-width="1.5"></rect><text x="364.81000947536296" y="510.1239923343526" font-size="20" font-weight="800" fill="#2c5a85" text-anchor="start" dominant-baseline="alphabetic">2017</text><g><text x="364.81000947536296" y="532.1239923343526" font-size="14" font-weight="600" fill="#1d3146" text-anchor="start">GSTN launched</text></g><g><circle cx="426.71868896484375" cy="423.7922058105469" r="35" fill="rgba(44, 90, 133, 0.2)"></circle><circle cx="424.71868896484375" cy="420.7922058105469" r="35" fill="#2c5a85"></circle><circle cx="424.71868896484375" cy="420.7922058105469" r="26" fill="#4a90c2"></circle><text x="424.71868896484375" y="427.7922058105469" font-size="18" font-weight="800" fill="#ffffff" text-anchor="middle" dominant-baseline="alphabetic">4</text></g><path d="M414.2600178097807,398.0850219765649 Q400.8729187313,369.019826669068 391.25094126864195,324.50490724141537" fill="none" stroke="#b8c9db" stroke-width="2.5" opacity="0.75"></path><rect x="295.5226135253906" y="252.50491333007812" width="103.453125" height="71" rx="10" ry="10" fill="#ffffff" opacity="0.96" stroke="#e8eff5" stroke-width="1.5"></rect><text x="384.9757385756041" y="284.50490724141537" font-size="20" font-weight="800" fill="#2c5a85" text-anchor="end" dominant-baseline="alphabetic">2018</text><g><text x="384.9757385756041" y="306.50490724141537" font-size="14" font-weight="600" fill="#1d3146" text-anchor="end">PMGDISHA</text></g><g><circle cx="541.9301147460938" cy="377.531982421875" r="35" fill="rgba(44, 90, 133, 0.2)"></circle><circle cx="539.9301147460938" cy="374.531982421875" r="35" fill="#2c5a85"></circle><circle cx="539.9301147460938" cy="374.531982421875" r="26" fill="#4a90c2"></circle><text x="539.9301147460938" y="381.531982421875" font-size="18" font-weight="800" fill="#ffffff" text-anchor="middle" dominant-baseline="alphabetic">5</text></g><path d="M548.2091607446365,398.12133165736714 Q558.8063396227712,428.31569867879705 566.4230619414304,454.1715095167451" fill="none" stroke="#b8c9db" stroke-width="2.5" opacity="0.75"></path><rect x="557.3905029296875" y="382.1715087890625" width="149.3515625" height="89" rx="10" ry="10" fill="#ffffff" opacity="0.96" stroke="#e8eff5" stroke-width="1.5"></rect><text x="571.3904895405561" y="414.1715095167451" font-size="20" font-weight="800" fill="#2c5a85" text-anchor="start" dominant-baseline="alphabetic">2019</text><g><text x="571.3904895405561" y="436.1715095167451" font-size="14" font-weight="600" fill="#1d3146" text-anchor="start">National Policy on</text><text x="571.3904895405561" y="454.1715095167451" font-size="14" font-weight="600" fill="#1d3146" text-anchor="start">Electronics</text></g><g><circle cx="660.3652954101562" cy="340.1981201171875" r="35" fill="rgba(44, 90, 133, 0.2)"></circle><circle cx="658.3652954101562" cy="337.1981201171875" r="35" fill="#2c5a85"></circle><circle cx="658.3652954101562" cy="337.1981201171875" r="26" fill="#4a90c2"></circle><text x="658.3652954101562" y="344.1981201171875" font-size="18" font-weight="800" fill="#ffffff" text-anchor="middle" dominant-baseline="alphabetic">6</text></g><path d="M651.4625604266294,313.1699647625375 Q642.627059647715,282.41392590858555 636.2765434628702,235.8911297695176" fill="none" stroke="#b8c9db" stroke-width="2.5" opacity="0.75"></path><rect x="499.1036376953125" y="163.89112854003906" width="147.03125" height="71" rx="10" ry="10" fill="#ffffff" opacity="0.96" stroke="#e8eff5" stroke-width="1.5"></rect><text x="632.1349024727541" y="195.8911297695176" font-size="20" font-weight="800" fill="#2c5a85" text-anchor="end" dominant-baseline="alphabetic">2020</text><g><text x="632.1349024727541" y="217.8911297695176" font-size="14" font-weight="600" fill="#1d3146" text-anchor="end">Aarogya Setu app</text></g><g><circle cx="780.1726684570312" cy="307.4814453125" r="35" fill="rgba(44, 90, 133, 0.2)"></circle><circle cx="778.1726684570312" cy="304.4814453125" r="35" fill="#2c5a85"></circle><circle cx="778.1726684570312" cy="304.4814453125" r="26" fill="#4a90c2"></circle><text x="778.1726684570312" y="311.4814453125" font-size="18" font-weight="800" fill="#ffffff" text-anchor="middle" dominant-baseline="alphabetic">7</text></g><path d="M784.4091314044051,328.69108244125584 Q792.3918039770437,359.6794179660633 798.1293498886276,386.47806640177214" fill="none" stroke="#b8c9db" stroke-width="2.5" opacity="0.75"></path><rect x="787.8712158203125" y="314.4780578613281" width="168.78125" height="71" rx="10" ry="10" fill="#ffffff" opacity="0.96" stroke="#e8eff5" stroke-width="1.5"></rect><text x="801.8712276570519" y="346.47806640177214" font-size="20" font-weight="800" fill="#2c5a85" text-anchor="start" dominant-baseline="alphabetic">2021</text><g><text x="801.8712276570519" y="368.47806640177214" font-size="14" font-weight="600" fill="#1d3146" text-anchor="start">UMANG International</text></g><g><circle cx="900.8905029296875" cy="278.3019714355469" r="35" fill="rgba(44, 90, 133, 0.2)"></circle><circle cx="898.8905029296875" cy="275.3019714355469" r="35" fill="#2c5a85"></circle><circle cx="898.8905029296875" cy="275.3019714355469" r="26" fill="#4a90c2"></circle><text x="898.8905029296875" y="282.3019714355469" font-size="18" font-weight="800" fill="#ffffff" text-anchor="middle" dominant-baseline="alphabetic">8</text></g><path d="M893.2610753072712,250.94402520348584 Q886.0554079505783,219.7658540264477 880.8763345379555,172.74177575371493" fill="none" stroke="#b8c9db" stroke-width="2.5" opacity="0.75"></path><rect x="819.0064697265625" y="100.74177551269531" width="72.4921875" height="71" rx="10" ry="10" fill="#ffffff" opacity="0.96" stroke="#e8eff5" stroke-width="1.5"></rect><text x="877.4986779645056" y="132.74177575371493" font-size="20" font-weight="800" fill="#2c5a85" text-anchor="end" dominant-baseline="alphabetic">2022</text><g><text x="877.4986779645056" y="154.74177575371493" font-size="14" font-weight="600" fill="#1d3146" text-anchor="end">NLTM</text></g><g><circle cx="1021.9776000976562" cy="250.68006896972656" r="35" fill="rgba(44, 90, 133, 0.2)"></circle><circle cx="1019.9776000976562" cy="247.68006896972656" r="35" fill="#2c5a85"></circle><circle cx="1019.9776000976562" cy="247.68006896972656" r="26" fill="#4a90c2"></circle><text x="1019.9776000976562" y="254.68006896972656" font-size="18" font-weight="800" fill="#ffffff" text-anchor="middle" dominant-baseline="alphabetic">9</text></g><path d="M1025.590770567286,272.04176672006565 Q1032.775628768412,303.2247398404997 1037.9397456004713,330.2545204210151" fill="none" stroke="#b8c9db" stroke-width="2.5" opacity="0.75"></path><rect x="1027.3076171875" y="258.2545166015625" width="132.25" height="71" rx="10" ry="10" fill="#ffffff" opacity="0.96" stroke="#e8eff5" stroke-width="1.5"></rect><text x="1041.307647882249" y="290.2545204210151" font-size="20" font-weight="800" fill="#2c5a85" text-anchor="start" dominant-baseline="alphabetic">2023</text><g><text x="1041.307647882249" y="312.2545204210151" font-size="14" font-weight="600" fill="#1d3146" text-anchor="start">India hosts G20</text></g><g><circle cx="1142.5357666015625" cy="220.870361328125" r="35" fill="rgba(44, 90, 133, 0.2)"></circle><circle cx="1140.5357666015625" cy="217.870361328125" r="35" fill="#2c5a85"></circle><circle cx="1140.5357666015625" cy="217.870361328125" r="26" fill="#4a90c2"></circle><text x="1140.5357666015625" y="224.870361328125" font-size="18" font-weight="800" fill="#ffffff" text-anchor="middle" dominant-baseline="alphabetic">10</text></g><path d="M1133.9062161422796,193.76540207265597 Q1125.4203915543974,162.91105422565562 1119.3212051318571,116.2715161573427" fill="none" stroke="#b8c9db" stroke-width="2.5" opacity="0.75"></path><rect x="948.624755859375" y="44.271514892578125" width="180.71875" height="71" rx="10" ry="10" fill="#ffffff" opacity="0.96" stroke="#e8eff5" stroke-width="1.5"></rect><text x="1115.3434748562875" y="76.2715161573427" font-size="20" font-weight="800" fill="#2c5a85" text-anchor="end" dominant-baseline="alphabetic">2024</text><g><text x="1115.3434748562875" y="98.2715161573427" font-size="14" font-weight="600" fill="#1d3146" text-anchor="end">Global India AI Summit</text></g></svg>