<svg id="svgRoot" width="1280" height="840" viewBox="0 0 1280 840"><text x="60" y="84" font-size="42" font-weight="900" fill="#16324a" text-anchor="start" dominant-baseline="alphabetic">Key Milestones of the Digital India Journey</text><text x="60" y="112" font-size="18" font-weight="600" fill="#6b7a90" text-anchor="start" dominant-baseline="alphabetic">2015–2024</text><line x1="90" y1="520" x2="1190" y2="520" stroke="#dfe8f1" stroke-width="12" stroke-linecap="round"></line><circle cx="90" cy="520" r="28" fill="#2c5a85"></circle><circle cx="90" cy="520" r="21" fill="#3f7fb5"></circle><text x="90" y="526" font-size="16" font-weight="900" fill="#fff" text-anchor="middle" dominant-baseline="alphabetic">1</text><path d="M90,520 v-66 h-12" fill="none" stroke="#b8c9db" stroke-width="3"></path><rect x="60" y="384" width="180.9140625" height="83.5" rx="6" ry="6" fill="#fff" opacity="0.92"></rect><text x="70" y="414" font-size="22" font-weight="900" fill="#234b6d" text-anchor="start" dominant-baseline="alphabetic">2015</text><g><text x="70" y="434" font-size="16" font-weight="800" fill="#1d3146" text-anchor="start" dominant-baseline="alphabetic">Digital India Program</text><text x="70" y="454" font-size="16" font-weight="800" fill="#1d3146" text-anchor="start" dominant-baseline="alphabetic">launched</text></g><circle cx="212.22222222222223" cy="520" r="28" fill="#2c5a85"></circle><circle cx="212.22222222222223" cy="520" r="21" fill="#3f7fb5"></circle><text x="212.22222222222223" y="526" font-size="16" font-weight="900" fill="#fff" text-anchor="middle" dominant-baseline="alphabetic">2</text><path d="M212.22222222222223,520 v66 h12" fill="none" stroke="#b8c9db" stroke-width="3"></path><rect x="92.44097900390625" y="556" width="149.78125" height="63.5" rx="6" ry="6" fill="#fff" opacity="0.92"></rect><text x="232.22222222222223" y="586" font-size="22" font-weight="900" fill="#234b6d" text-anchor="end" dominant-baseline="alphabetic">2016</text><g><text x="232.22222222222223" y="606" font-size="16" font-weight="800" fill="#1d3146" text-anchor="end" dominant-baseline="alphabetic">BHIM app launch</text></g><circle cx="334.44444444444446" cy="520" r="28" fill="#2c5a85"></circle><circle cx="334.44444444444446" cy="520" r="21" fill="#3f7fb5"></circle><text x="334.44444444444446" y="526" font-size="16" font-weight="900" fill="#fff" text-anchor="middle" dominant-baseline="alphabetic">3</text><path d="M334.44444444444446,520 v-66 h-12" fill="none" stroke="#b8c9db" stroke-width="3"></path><rect x="304.4444580078125" y="384" width="139.125" height="63.5" rx="6" ry="6" fill="#fff" opacity="0.92"></rect><text x="314.44444444444446" y="414" font-size="22" font-weight="900" fill="#234b6d" text-anchor="start" dominant-baseline="alphabetic">2017</text><g><text x="314.44444444444446" y="434" font-size="16" font-weight="800" fill="#1d3146" text-anchor="start" dominant-baseline="alphabetic">GSTN launched</text></g><circle cx="456.6666666666667" cy="520" r="28" fill="#2c5a85"></circle><circle cx="456.6666666666667" cy="520" r="21" fill="#3f7fb5"></circle><text x="456.6666666666667" y="526" font-size="16" font-weight="900" fill="#fff" text-anchor="middle" dominant-baseline="alphabetic">4</text><path d="M456.6666666666667,520 v66 h12" fill="none" stroke="#b8c9db" stroke-width="3"></path><rect x="380.44012451171875" y="556" width="106.2265625" height="63.5" rx="6" ry="6" fill="#fff" opacity="0.92"></rect><text x="476.6666666666667" y="586" font-size="22" font-weight="900" fill="#234b6d" text-anchor="end" dominant-baseline="alphabetic">2018</text><g><text x="476.6666666666667" y="606" font-size="16" font-weight="800" fill="#1d3146" text-anchor="end" dominant-baseline="alphabetic">PMGDISHA</text></g><circle cx="578.8888888888889" cy="520" r="28" fill="#2c5a85"></circle><circle cx="578.8888888888889" cy="520" r="21" fill="#3f7fb5"></circle><text x="578.8888888888889" y="526" font-size="16" font-weight="900" fill="#fff" text-anchor="middle" dominant-baseline="alphabetic">5</text><path d="M578.8888888888889,520 v-66 h-12" fill="none" stroke="#b8c9db" stroke-width="3"></path><rect x="548.888916015625" y="384" width="249.390625" height="63.5" rx="6" ry="6" fill="#fff" opacity="0.92"></rect><text x="558.8888888888889" y="414" font-size="22" font-weight="900" fill="#234b6d" text-anchor="start" dominant-baseline="alphabetic">2019</text><g><text x="558.8888888888889" y="434" font-size="16" font-weight="800" fill="#1d3146" text-anchor="start" dominant-baseline="alphabetic">National Policy on Electronics</text></g><circle cx="701.1111111111111" cy="520" r="28" fill="#2c5a85"></circle><circle cx="701.1111111111111" cy="520" r="21" fill="#3f7fb5"></circle><text x="701.1111111111111" y="526" font-size="16" font-weight="900" fill="#fff" text-anchor="middle" dominant-baseline="alphabetic">6</text><path d="M701.1111111111111,520 v66 h12" fill="none" stroke="#b8c9db" stroke-width="3"></path><rect x="575.079833984375" y="556" width="156.03125" height="63.5" rx="6" ry="6" fill="#fff" opacity="0.92"></rect><text x="721.1111111111111" y="586" font-size="22" font-weight="900" fill="#234b6d" text-anchor="end" dominant-baseline="alphabetic">2020</text><g><text x="721.1111111111111" y="606" font-size="16" font-weight="800" fill="#1d3146" text-anchor="end" dominant-baseline="alphabetic">Aarogya Setu app</text></g><circle cx="823.3333333333334" cy="520" r="28" fill="#2c5a85"></circle><circle cx="823.3333333333334" cy="520" r="21" fill="#3f7fb5"></circle><text x="823.3333333333334" y="526" font-size="16" font-weight="900" fill="#fff" text-anchor="middle" dominant-baseline="alphabetic">7</text><path d="M823.3333333333334,520 v-66 h-12" fill="none" stroke="#b8c9db" stroke-width="3"></path><rect x="793.3333129882812" y="384" width="180.890625" height="63.5" rx="6" ry="6" fill="#fff" opacity="0.92"></rect><text x="803.3333333333334" y="414" font-size="22" font-weight="900" fill="#234b6d" text-anchor="start" dominant-baseline="alphabetic">2021</text><g><text x="803.3333333333334" y="434" font-size="16" font-weight="800" fill="#1d3146" text-anchor="start" dominant-baseline="alphabetic">UMANG International</text></g><circle cx="945.5555555555557" cy="520" r="28" fill="#2c5a85"></circle><circle cx="945.5555555555557" cy="520" r="21" fill="#3f7fb5"></circle><text x="945.5555555555557" y="526" font-size="16" font-weight="900" fill="#fff" text-anchor="middle" dominant-baseline="alphabetic">8</text><path d="M945.5555555555557,520 v66 h12" fill="none" stroke="#b8c9db" stroke-width="3"></path><rect x="906.6102294921875" y="556" width="68.9453125" height="63.5" rx="6" ry="6" fill="#fff" opacity="0.92"></rect><text x="965.5555555555557" y="586" font-size="22" font-weight="900" fill="#234b6d" text-anchor="end" dominant-baseline="alphabetic">2022</text><g><text x="965.5555555555557" y="606" font-size="16" font-weight="800" fill="#1d3146" text-anchor="end" dominant-baseline="alphabetic">NLTM</text></g><circle cx="1067.7777777777778" cy="520" r="28" fill="#2c5a85"></circle><circle cx="1067.7777777777778" cy="520" r="21" fill="#3f7fb5"></circle><text x="1067.7777777777778" y="526" font-size="16" font-weight="900" fill="#fff" text-anchor="middle" dominant-baseline="alphabetic">9</text><path d="M1067.7777777777778,520 v-66 h-12" fill="none" stroke="#b8c9db" stroke-width="3"></path><rect x="1037.77783203125" y="384" width="139.140625" height="63.5" rx="6" ry="6" fill="#fff" opacity="0.92"></rect><text x="1047.7777777777778" y="414" font-size="22" font-weight="900" fill="#234b6d" text-anchor="start" dominant-baseline="alphabetic">2023</text><g><text x="1047.7777777777778" y="434" font-size="16" font-weight="800" fill="#1d3146" text-anchor="start" dominant-baseline="alphabetic">India hosts G20</text></g><circle cx="1190" cy="520" r="28" fill="#2c5a85"></circle><circle cx="1190" cy="520" r="21" fill="#3f7fb5"></circle><text x="1190" y="526" font-size="16" font-weight="900" fill="#fff" text-anchor="middle" dominant-baseline="alphabetic">10</text><path d="M1190,520 v66 h12" fill="none" stroke="#b8c9db" stroke-width="3"></path><rect x="1025.46875" y="556" width="194.53125" height="63.5" rx="6" ry="6" fill="#fff" opacity="0.92"></rect><text x="1210" y="586" font-size="22" font-weight="900" fill="#234b6d" text-anchor="end" dominant-baseline="alphabetic">2024</text><g><text x="1210" y="606" font-size="16" font-weight="800" fill="#1d3146" text-anchor="end" dominant-baseline="alphabetic">Global India AI Summit</text></g></svg>